# xmcd CD database file
# Copyright (C) 1997 Ti Kan
# 
# Track frame offsets:
#     150
#     10425
#     21450
#     32175
#     43050
#     55875
#     67500
#     80925
#     93300
#     103875
#     117750
#     130350
#     142650
#     155850
# 
# Disc length: 2213 seconds
# 
# Revision: 1
# Processed by: cddbd v1.4b41PL1 Copyright (c) Steve Scherf et al.
# Submitted via: DiscPlay 4.0.4
# 
DISCID=c108a30e
DTITLE=Howlin' Wolf - Howlin' Wolf
DYEAR=1900
DGENRE=
TTITLE0=Shake for me
TTITLE1=Red Rooster
TTITLE2=Who's been talkin'
TTITLE3=Wang dang doodle
TTITLE4=Back door man
TTITLE5=Hwolin' for my baby
TTITLE6=My baby walked of
TTITLE7=Goin' back home
TTITLE8=Built for comfort
TTITLE9=The wolf is at your door
TTITLE10=My mind is ramblin'
TTITLE11=Streamline woman
TTITLE12=Worried about you
TTITLE13=Do the do
EXTD=
EXTT0=
EXTT1=
EXTT2=
EXTT3=
EXTT4=
EXTT5=
EXTT6=
EXTT7=
EXTT8=
EXTT9=
EXTT10=
EXTT11=
EXTT12=
EXTT13=
PLAYORDER=
